HIERARCHY
ROOT Hips
{
	OFFSET -249.116806 92.288788 332.350586
	CHANNELS 6 Xposition Yposition Zposition Zrotation Yrotation Xrotation 
	JOINT LeftUpLeg
	{
		OFFSET 0.103458 1.857838 10.548509
		CHANNELS 3 Zrotation Yrotation Xrotation
		JOINT LeftLeg
		{
			OFFSET 43.500004 -0.000038 -0.000002
			CHANNELS 3 Zrotation Yrotation Xrotation
			JOINT LeftFoot
			{
				OFFSET 42.372196 0.000015 0.000010
				CHANNELS 3 Zrotation Yrotation Xrotation
				JOINT LeftToe
				{
					OFFSET 17.300011 0.000003 -0.000006
					CHANNELS 3 Zrotation Yrotation Xrotation
					End Site
					{
						OFFSET 0.000000 0.000000 0.000000
					}
				}
			}
		}
	}
	JOINT RightUpLeg
	{
		OFFSET 0.103461 1.857837 -10.548498
		CHANNELS 3 Zrotation Yrotation Xrotation
		JOINT RightLeg
		{
			OFFSET 43.500046 -0.000042 0.000031
			CHANNELS 3 Zrotation Yrotation Xrotation
			JOINT RightFoot
			{
				OFFSET 42.372253 0.000011 -0.000004
				CHANNELS 3 Zrotation Yrotation Xrotation
				JOINT RightToe
				{
					OFFSET 17.299978 -0.000010 0.000025
					CHANNELS 3 Zrotation Yrotation Xrotation
					End Site
					{
						OFFSET 0.000000 0.000000 0.000000
					}
				}
			}
		}
	}
	JOINT Spine
	{
		OFFSET 6.901964 -2.603743 0.000001
		CHANNELS 3 Zrotation Yrotation Xrotation
		JOINT Spine1
		{
			OFFSET 12.588102 0.000002 0.000000
			CHANNELS 3 Zrotation Yrotation Xrotation
			JOINT Spine2
			{
				OFFSET 12.343204 0.000009 -0.000003
				CHANNELS 3 Zrotation Yrotation Xrotation
				JOINT Neck
				{
					OFFSET 25.832901 -0.000015 0.000002
					CHANNELS 3 Zrotation Yrotation Xrotation
					JOINT Head
					{
						OFFSET 11.766612 0.000023 -0.000003
						CHANNELS 3 Zrotation Yrotation Xrotation
						End Site
						{
							OFFSET 0.000000 0.000000 0.000000
						}
					}
				}
				JOINT LeftShoulder
				{
					OFFSET 19.745905 -1.480377 6.000110
					CHANNELS 3 Zrotation Yrotation Xrotation
					JOINT LeftArm
					{
						OFFSET 11.284127 -0.000004 -0.000022
						CHANNELS 3 Zrotation Yrotation Xrotation
						JOINT LeftForeArm
						{
							OFFSET 33.000050 -0.000022 0.000026
							CHANNELS 3 Zrotation Yrotation Xrotation
							JOINT LeftHand
							{
								OFFSET 25.200010 0.000035 0.000011
								CHANNELS 3 Zrotation Yrotation Xrotation
								End Site
								{
									OFFSET 0.000000 0.000000 0.000000
								}
							}
						}
					}
				}
				JOINT RightShoulder
				{
					OFFSET 19.746092 -1.480381 -6.000066
					CHANNELS 3 Zrotation Yrotation Xrotation
					JOINT RightArm
					{
						OFFSET 11.284147 -0.000020 -0.000017
						CHANNELS 3 Zrotation Yrotation Xrotation
						JOINT RightForeArm
						{
							OFFSET 33.000095 0.000005 0.000016
							CHANNELS 3 Zrotation Yrotation Xrotation
							JOINT RightHand
							{
								OFFSET 25.199768 0.000156 0.000415
								CHANNELS 3 Zrotation Yrotation Xrotation
								End Site
								{
									OFFSET 0.000000 0.000000 0.000000
								}
							}
						}
					}
				}
			}
		}
	}
}
MOTION
Frames: 11
Frame Time: 0.033333
226.154602 85.075233 -544.203674 95.137206 -4.799102 -30.168491 -170.319933 8.123599 -175.912014 -33.567603 -3.448730 2.037740 81.253535 2.747112 16.806403 21.454551 0.003096 0.000001 142.432940 0.760892 175.086066 -67.042658 -3.513408 5.463948 86.329698 -2.438485 6.807325 21.454555 -0.003108 -0.000017 9.588375 0.402356 -1.223674 9.154704 0.900147 -2.411723 8.836855 0.885706 -2.417109 15.667139 17.071318 21.298961 -31.004145 -23.080905 34.810172 -156.820488 -79.863408 -25.083607 -6.698903 59.291458 16.448895 -93.014513 -3.054983 2.652619 -13.563542 -11.099656 30.124119 178.744070 72.263818 0.074400 18.583150 -44.888543 -56.656822 -54.338919 21.040932 -2.334655 4.942135 -6.111168 -33.182869 
218.890793 87.081940 -548.326172 95.939446 -4.446063 -27.058288 -165.317475 5.812396 -175.126556 -28.096202 -3.664275 3.543885 68.927646 1.201231 10.024397 21.454555 0.003091 0.000002 143.575959 2.752105 176.441941 -46.592306 -2.604858 2.843198 84.493040 -0.336107 7.925898 21.454555 -0.003108 -0.000017 9.215033 0.688285 -1.760649 8.395231 1.502272 -3.467015 8.077636 1.481459 -3.476004 15.498435 17.621536 21.384564 -29.750617 -24.135392 35.093109 -161.502801 -80.384155 -20.320248 -3.457711 58.436585 21.408618 -94.615844 -2.596702 2.691812 -12.492226 -10.770034 29.836705 178.583478 72.690903 -0.081817 24.041781 -45.846176 -58.201148 -54.737792 20.911869 -2.340178 7.679261 -9.022382 -31.814130 
211.558197 87.897133 -552.200378 96.199335 -3.398105 -23.804109 -162.639249 4.783205 -177.299444 -28.051966 -2.353273 4.635505 61.661677 -1.675222 3.642436 21.454538 0.003084 -0.000000 145.619428 5.549194 176.844389 -27.607618 -1.305969 -0.351401 85.535340 2.359469 10.924568 21.454557 -0.003108 -0.000018 8.887066 0.707419 -2.368326 7.729871 1.571112 -4.684551 7.412815 1.542956 -4.693913 14.230025 18.311478 21.494510 -28.201462 -25.016261 35.357693 -156.629584 -81.857987 -25.239183 -2.058880 58.690969 25.905774 -94.387846 -2.569357 2.679746 -11.807440 -11.143577 26.622010 179.728983 72.982784 1.100513 27.215606 -46.078457 -58.721575 -56.183794 20.588325 -2.370647 8.857771 -13.163619 -31.500795 
204.548996 87.634689 -555.949707 95.669060 -3.267325 -20.856413 -160.627239 3.342500 179.796056 -33.047922 -1.621843 2.534966 62.475679 -2.555237 -1.918220 21.454550 0.003092 0.000001 147.732689 7.530901 172.786219 -15.338423 1.186076 0.999541 84.965723 2.023643 14.009670 21.454557 -0.003106 -0.000017 8.838282 0.763011 -2.802324 7.623202 1.708561 -5.548912 7.306547 1.675215 -5.559074 14.020159 18.051124 21.578543 -27.922460 -25.148381 35.441459 -159.663800 -82.222008 -22.160812 -0.199860 57.887581 29.479435 -93.085998 -2.763828 2.635466 -11.457600 -11.013537 25.602573 -179.835862 72.560412 1.539594 28.633575 -45.572252 -57.848082 -58.313785 20.538080 -2.446534 9.051822 -14.217700 -31.620777 
197.635803 85.932053 -559.782715 94.545808 -3.623194 -18.633514 -160.264105 2.298098 177.908109 -43.828969 -0.555201 0.469744 68.909847 -1.134350 -2.399244 21.454560 0.003093 0.000001 148.676703 8.868392 171.833913 -13.820622 2.550711 0.866425 87.327664 2.102415 15.605661 21.454558 -0.003108 -0.000017 8.902006 0.847501 -2.907617 7.744829 1.887303 -5.752756 7.428304 1.852719 -5.763989 13.676328 17.497451 21.094952 -26.541179 -25.732147 34.820397 -165.357131 -81.709847 -16.399697 1.472130 57.079109 32.546384 -90.762095 -3.639923 2.593499 -9.285334 -9.581308 24.261582 -179.851175 72.405312 1.521010 29.135456 -44.668331 -55.804425 -60.616242 20.013849 -2.498355 8.407452 -14.298165 -32.523739 
190.935501 83.980347 -563.297180 93.035455 -4.685087 -16.784486 -161.502159 0.814406 177.294786 -56.924651 0.412255 0.929797 70.599854 -1.048624 -1.196471 21.454553 0.003091 0.000001 148.621597 8.246399 176.737278 -21.795159 0.379153 -1.789866 84.783951 4.552067 16.392403 21.454558 -0.003107 -0.000017 9.172498 1.022826 -2.806323 8.279537 2.243511 -5.533278 7.962793 2.210240 -5.546665 13.898013 16.180974 20.967846 -27.027952 -25.084032 34.458062 -164.455615 -80.826348 -17.319142 0.783272 57.416059 34.874820 -86.583733 -6.261482 2.592028 -9.415780 -9.388788 24.541361 179.176667 72.368293 0.521118 26.772202 -44.014900 -53.682538 -61.808984 19.902831 -2.537151 7.064178 -9.973879 -30.140966 
184.511703 82.041054 -566.455383 91.473145 -6.979489 -15.658388 -164.396137 -1.097306 177.190939 -71.395885 0.607510 1.339552 69.600468 -1.117628 -0.461307 21.454560 0.003095 -0.000001 147.531499 6.946199 179.029599 -34.316943 -0.019158 -3.046334 76.855713 6.898405 17.101245 21.454558 -0.003109 -0.000018 9.646660 1.376555 -2.201926 9.228700 2.924146 -4.288332 8.911120 2.898358 -4.305870 12.757237 15.475096 20.388921 -27.183552 -24.802514 33.874634 -159.937977 -80.620862 -21.905549 -2.096616 59.513815 35.335871 -81.573304 -9.644869 2.609229 -6.241995 -7.889354 24.061935 179.018889 72.118786 0.353895 21.914312 -43.590520 -50.804248 -61.127693 20.365334 -2.542659 3.924843 -4.766313 -28.137014 
178.342606 79.813911 -569.257874 89.420324 -8.982446 -15.166992 -168.415799 -3.483994 174.438769 -86.254614 1.509689 3.658894 73.058538 -2.081090 1.566443 21.454551 0.003092 -0.000000 147.065734 7.222897 -174.754597 -48.664650 -1.025703 -6.325956 84.391673 6.887936 11.762481 21.454558 -0.003112 -0.000017 10.446092 1.801476 -1.274367 10.846468 3.714367 -2.375241 10.527937 3.700094 -2.397630 10.582055 14.730377 19.588429 -28.647982 -24.847960 33.698651 -163.107281 -78.175948 -18.710878 -7.821584 60.591653 33.326986 -73.489099 -14.695642 2.616010 -5.118587 -11.178656 22.250098 173.425606 71.658691 -5.408295 14.481736 -42.019495 -45.874255 -57.116306 21.039402 -2.436168 1.815580 1.690457 -26.204132 
172.813599 79.160797 -571.191284 89.248122 -8.967261 -14.033690 -177.473545 -3.884002 173.226083 -98.155774 2.142213 5.166233 76.135723 -2.493694 3.945020 21.454558 0.003089 0.000003 148.746712 7.887403 -172.321274 -54.346617 -2.558058 -6.663054 90.299042 6.505986 11.886431 21.454557 -0.003114 -0.000017 10.643269 1.760975 -0.637151 11.261954 3.575484 -1.100169 10.943247 3.568910 -1.121760 9.326876 15.152158 19.387552 -29.330690 -24.691482 33.787419 -165.438588 -76.626642 -16.343290 -10.170872 61.152309 32.910884 -64.736191 -18.078122 2.492592 -3.112583 -16.681743 18.573178 166.077894 70.587512 -13.001312 5.390880 -40.261851 -42.883380 -50.161944 22.490257 -2.287585 -0.229907 5.642821 -23.404862 
167.291397 79.399017 -572.456482 89.032513 -7.910987 -12.564913 172.601448 -3.467897 171.003225 -105.370196 2.461128 5.296848 78.285750 -2.815380 3.375516 21.454555 0.003089 -0.000000 152.018168 8.842999 -173.142358 -56.491163 -2.850635 -5.713206 94.472745 5.555088 13.264362 21.454558 -0.003110 -0.000018 10.654190 1.440595 0.053901 11.302215 2.868909 0.248474 10.983682 2.870491 0.231139 9.091686 15.784699 18.946238 -29.962913 -24.762745 33.639105 -166.866494 -77.053946 -14.883433 -7.196573 60.035505 36.498752 -62.618539 -18.061167 2.408020 -0.208600 -20.238037 11.783634 163.786147 70.471010 -15.362395 -0.681543 -39.963532 -36.627385 -50.031078 23.528875 -2.353801 -0.700028 4.555142 -30.963843 
161.907501 80.835876 -573.287476 89.116907 -7.482762 -10.293699 162.280008 -3.876800 168.852767 -106.856704 2.310766 5.250175 81.109746 -2.649644 4.216975 21.454563 0.003093 0.000001 157.739640 9.231398 -172.937098 -53.709319 -2.526001 -4.568148 95.639615 4.697404 13.895601 21.454560 -0.003111 -0.000018 10.579337 1.290307 0.635789 11.163809 2.513106 1.393522 10.845493 2.521611 1.378324 8.749866 15.624642 18.599592 -29.882023 -24.755211 33.279967 -165.008710 -77.446040 -16.777677 -1.316990 57.330333 41.441466 -65.872885 -16.244645 2.410639 0.009048 -19.817012 10.115645 163.883846 71.722676 -15.207000 -4.782694 -40.676789 -29.099355 -56.751335 22.976990 -2.556714 -2.216613 7.680796 -33.933691 
